<svg width="162" height="33" viewBox="0 0 162 33" fill="none" xmlns="http://www.w3.org/2000/svg">
<path d="M67.124 7.52V26H60.852L55.812 16.844L54.636 14.352H54.58L54.692 17.992V26H49.708V7.52H55.952L60.992 16.676L62.196 19.168H62.224L62.112 15.528V7.52H67.124ZM77.3806 11.72C78.9113 11.72 80.2459 12.0093 81.3846 12.588C82.5233 13.148 83.4099 13.9693 84.0446 15.052C84.6793 16.1347 84.9966 17.4507 84.9966 19C84.9966 20.5307 84.6793 21.8467 84.0446 22.948C83.4099 24.0307 82.5233 24.8613 81.3846 25.44C80.2459 26 78.9113 26.28 77.3806 26.28C75.8873 26.28 74.5619 26 73.4046 25.44C72.2659 24.8613 71.3699 24.0307 70.7166 22.948C70.0819 21.8467 69.7646 20.5307 69.7646 19C69.7646 17.4507 70.0819 16.1347 70.7166 15.052C71.3699 13.9693 72.2659 13.148 73.4046 12.588C74.5619 12.0093 75.8873 11.72 77.3806 11.72ZM77.3806 15.612C76.9699 15.612 76.6153 15.7147 76.3166 15.92C76.0366 16.1253 75.8219 16.48 75.6726 16.984C75.5233 17.488 75.4486 18.16 75.4486 19C75.4486 19.84 75.5233 20.512 75.6726 21.016C75.8219 21.5013 76.0366 21.856 76.3166 22.08C76.6153 22.2853 76.9699 22.388 77.3806 22.388C77.8099 22.388 78.1646 22.2853 78.4446 22.08C78.7246 21.856 78.9393 21.5013 79.0886 21.016C79.2379 20.512 79.3126 19.84 79.3126 19C79.3126 18.16 79.2379 17.488 79.0886 16.984C78.9393 16.48 78.7246 16.1253 78.4446 15.92C78.1646 15.7147 77.8099 15.612 77.3806 15.612ZM94.0643 7.38V20.624C94.0643 21.2773 94.2043 21.744 94.4843 22.024C94.7829 22.304 95.2216 22.444 95.8003 22.444C96.2109 22.444 96.5656 22.4067 96.8643 22.332C97.163 22.2573 97.443 22.136 97.7043 21.968L98.0683 25.272C97.6203 25.5893 97.0136 25.832 96.2483 26C95.4829 26.1867 94.7363 26.28 94.0083 26.28C92.8136 26.28 91.7963 26.1213 90.9563 25.804C90.1349 25.4867 89.5003 24.9827 89.0523 24.292C88.6229 23.6013 88.4083 22.6773 88.4083 21.52V8.948L94.0643 7.38ZM97.8723 12V15.892H86.1123V12H97.8723ZM102.702 10.768C101.582 10.768 100.77 10.572 100.266 10.18C99.781 9.788 99.5383 9.15333 99.5383 8.276C99.5383 7.38 99.781 6.736 100.266 6.344C100.77 5.952 101.582 5.756 102.702 5.756C103.822 5.756 104.625 5.952 105.11 6.344C105.614 6.736 105.866 7.38 105.866 8.276C105.866 9.15333 105.614 9.788 105.11 10.18C104.625 10.572 103.822 10.768 102.702 10.768ZM105.53 12V26H99.8743V12H105.53ZM126.333 26H120.453L119.417 22.164H113.789L112.725 26H107.013L113.229 7.52H120.089L126.333 26ZM114.741 18.468H118.493L116.617 11.58L114.741 18.468ZM127.81 31.88V12H132.934L133.214 17.656L132.57 16.984C132.663 15.9573 132.924 15.052 133.354 14.268C133.783 13.484 134.352 12.868 135.062 12.42C135.79 11.9533 136.63 11.72 137.582 11.72C138.739 11.72 139.728 12.0093 140.55 12.588C141.371 13.148 141.996 13.9693 142.426 15.052C142.874 16.116 143.098 17.4133 143.098 18.944C143.098 20.4747 142.874 21.7907 142.426 22.892C141.978 23.9933 141.334 24.8333 140.494 25.412C139.672 25.9907 138.692 26.28 137.554 26.28C136.228 26.28 135.183 25.8693 134.418 25.048C133.671 24.208 133.186 23.1627 132.962 21.912L133.466 21.156V31.88H127.81ZM135.398 22.22C136.032 22.22 136.527 21.9867 136.882 21.52C137.236 21.0347 137.414 20.1947 137.414 19C137.414 17.8053 137.236 16.9653 136.882 16.48C136.527 15.9947 136.042 15.752 135.426 15.752C135.034 15.752 134.688 15.8733 134.39 16.116C134.091 16.3587 133.858 16.7227 133.69 17.208C133.54 17.6747 133.466 18.272 133.466 19C133.466 19.6907 133.531 20.2787 133.662 20.764C133.811 21.2493 134.035 21.6133 134.334 21.856C134.632 22.0987 134.987 22.22 135.398 22.22ZM145.564 31.88V12H150.688L150.968 17.656L150.324 16.984C150.418 15.9573 150.679 15.052 151.108 14.268C151.538 13.484 152.107 12.868 152.816 12.42C153.544 11.9533 154.384 11.72 155.336 11.72C156.494 11.72 157.483 12.0093 158.304 12.588C159.126 13.148 159.751 13.9693 160.18 15.052C160.628 16.116 160.852 17.4133 160.852 18.944C160.852 20.4747 160.628 21.7907 160.18 22.892C159.732 23.9933 159.088 24.8333 158.248 25.412C157.427 25.9907 156.447 26.28 155.308 26.28C153.983 26.28 152.938 25.8693 152.172 25.048C151.426 24.208 150.94 23.1627 150.716 21.912L151.22 21.156V31.88H145.564ZM153.152 22.22C153.787 22.22 154.282 21.9867 154.636 21.52C154.991 21.0347 155.168 20.1947 155.168 19C155.168 17.8053 154.991 16.9653 154.636 16.48C154.282 15.9947 153.796 15.752 153.18 15.752C152.788 15.752 152.443 15.8733 152.144 16.116C151.846 16.3587 151.612 16.7227 151.444 17.208C151.295 17.6747 151.22 18.272 151.22 19C151.22 19.6907 151.286 20.2787 151.416 20.764C151.566 21.2493 151.79 21.6133 152.088 21.856C152.387 22.0987 152.742 22.22 153.152 22.22Z" fill="url(#paint0_linear_159_5)"/>
<circle cx="16" cy="17" r="16" fill="#D9D9D9"/>
<defs>
<linearGradient id="paint0_linear_159_5" x1="48" y1="16.5" x2="162" y2="16.5" gradientUnits="userSpaceOnUse">
<stop stop-color="#605DFF"/>
<stop offset="1" stop-color="#3A3899" stop-opacity="0.9"/>
</linearGradient>
</defs>
</svg>
